<?xml version="1.0" encoding="UTF-8"?>
<svg id="Layer_2" data-name="Layer 2" xmlns="http://www.w3.org/2000/svg" viewBox="0 0 701.46 838.09">
  <defs>
    <style>
      .cls-1 {
        fill: #e35d2c;
        stroke-width: 0px;
      }
    </style>
  </defs>
  <g id="Layer_2-2" data-name="Layer 2">
    <path class="cls-1" d="M350.73,0C157.03,0,0,157.03,0,350.73c0,101.1,42.78,192.21,111.23,256.22l217.23,221.78c12.23,12.48,32.32,12.48,44.54,0l217.23-221.77c68.45-64.01,111.23-155.12,111.23-256.22C701.46,157.03,544.44,0,350.73,0ZM102.1,325.39c.18-1.69.37-3.38.57-5.06.05-.42.11-.83.16-1.24.23-1.77.47-3.53.73-5.28.04-.27.09-.54.13-.82,1.48-9.61,3.52-19.03,6.06-28.24.18-.66.36-1.33.55-1.99.34-1.19.7-2.38,1.06-3.56.29-.96.58-1.92.87-2.87.31-1,.64-1.99.97-2.98.38-1.16.77-2.32,1.17-3.47.28-.82.57-1.63.86-2.45.49-1.37.99-2.74,1.5-4.1.23-.61.46-1.22.69-1.82.65-1.67,1.31-3.34,1.99-4.99.12-.3.24-.6.37-.9,4.33-10.41,9.34-20.47,14.97-30.12.96-1.65,3.47-1.05,3.6.85,3.95,56,29.81,101.28,52.96,141.86,15.41,27,28.87,50.58,34.32,73.4.36,1.49-1.09,2.8-2.53,2.28-25.63-9.26-51.41-23.38-74.65-44.88-17.6-16.29-32.47-35.54-44.32-57.35-1.83-3.36-2.69-7.16-2.51-10.97.1-1.24.21-2.48.33-3.71.05-.52.1-1.05.16-1.57ZM201.03,151.24c30.5-22.77,66.4-38.72,105.51-45.64,11.64-.42,21.7,9,21.7,21.07v334.63c-11.45-.22-24.43-.83-38.36-2.37-9.31-1.03-16.89-8.08-18.43-17.32-5.6-33.6-23.52-64.99-41.04-95.71-24.73-43.32-50.3-88.11-47.33-143.22.67-12.37,2.77-24.78,6.3-37.17,1.2-4.21,3.62-7.96,7.02-10.71,1.42-1.11,2.85-2.21,4.29-3.29.12-.09.24-.18.36-.27ZM599.86,330.91c.12,3.73-.74,7.44-2.53,10.73-11.85,21.81-26.72,41.07-44.32,57.35-23.23,21.5-49.02,35.61-74.65,44.88-1.44.52-2.89-.79-2.53-2.28,5.45-22.81,18.9-46.4,34.32-73.4,23.15-40.58,49.01-85.85,52.96-141.86.11-1.62,1.95-2.28,3.08-1.42,18.61,31.55,30.49,67.54,33.66,106ZM586.79,434.01c-11.69,33.43-30.28,63.63-54.07,88.87-6.58,6.98-17.13,8.74-25.46,4-.05-.03-.1-.06-.15-.09-4.42-2.54-8.47-5.7-12.14-9.48-10.48-10.78-6.69-28.73,7.28-34.3,30.65-12.22,57.88-29.28,81.34-50.99.02-.02.04-.04.06-.05,1.48-1.37,3.82.13,3.16,2.04ZM507.18,156.74c2.31,2.47,3.99,5.48,4.92,8.76,3.52,12.38,5.63,24.8,6.3,37.17,2.97,55.11-22.6,99.9-47.33,143.22-17.52,30.71-35.44,62.1-41.04,95.7-1.54,9.24-9.12,16.29-18.43,17.32-5.47.61-10.8,1.07-15.95,1.42-12.14.83-22.41-8.86-22.41-21.02V126.67c0-11.98,9.91-21.36,21.44-21.08,42.08,7.46,80.52,25.46,112.5,51.16ZM453.47,579.44c-17.48,7.89-36.02,13.83-55.36,17.54-12.92,2.48-24.88-7.56-24.88-20.72v-49.61c0-11.18,8.73-20.42,19.89-21.03,8.12-.44,16.73-1.13,25.72-2.17,9.12-1.06,17.78,3.99,21.62,12.34,5.35,11.64,11.96,21.78,19.8,30.39,9.58,10.51,6.16,27.41-6.8,33.26ZM328.23,526.65v49.61c0,13.16-11.95,23.2-24.88,20.72-19.34-3.71-37.88-9.65-55.36-17.54-12.96-5.85-16.37-22.75-6.8-33.26,7.84-8.6,14.45-18.75,19.8-30.39,3.83-8.35,12.49-13.4,21.62-12.34,9,1.04,17.6,1.73,25.72,2.17,11.16.61,19.89,9.85,19.89,21.03ZM206.5,517.31c-3.67,3.78-7.72,6.95-12.14,9.48-.05.03-.1.06-.15.09-8.34,4.74-18.88,2.98-25.46-4-23.79-25.25-42.38-55.44-54.07-88.87-.67-1.9,1.68-3.41,3.16-2.04.02.02.04.04.06.05,23.46,21.71,50.69,38.77,81.34,50.99,13.97,5.57,17.76,23.52,7.28,34.3Z"/>
  </g>
</svg>
