<svg width="352" height="56" viewBox="0 0 352 56" fill="none" xmlns="http://www.w3.org/2000/svg">
<path d="M212.909 36.3582C216.39 32.5264 218.512 27.4371 218.512 21.8523C218.512 9.93408 208.85 0.272461 196.932 0.272461C185.014 0.272461 175.352 9.93408 175.352 21.8523C175.352 27.5733 177.578 32.7743 181.212 36.6363L196.946 55.7276L212.909 36.3582Z" fill="#FF3F02"/>
<circle cx="197.434" cy="21.8242" r="15.8643" transform="rotate(90 197.434 21.8242)" fill="white" stroke="#FF3F02" stroke-width="2" stroke-linecap="round" stroke-linejoin="round"/>
<path fill-rule="evenodd" clip-rule="evenodd" d="M185.467 20.874L180.734 20.874C180.179 20.874 179.728 21.3247 179.728 21.8806C179.728 22.4366 180.179 22.8873 180.734 22.8873L185.458 22.8873C185.502 23.8551 185.615 24.8192 185.796 25.7704C185.315 26.0085 184.931 26.3868 184.629 26.8565C184.023 27.7983 183.678 29.2202 183.5 31.1105C183.448 31.6637 183.854 32.15 184.409 32.1966C184.963 32.2431 185.455 31.8324 185.507 31.2792C185.679 29.4549 185.992 28.4429 186.322 27.9296L186.331 27.9164C187.745 32.4854 190.834 36.5763 195.591 39.1061C196.081 39.3672 196.691 39.1809 196.952 38.6901C197.213 38.1992 197.027 37.5897 196.536 37.3286C192.557 35.2122 189.877 31.8602 188.512 28.0737C188.745 28.2044 188.998 28.3587 189.274 28.5376C189.985 29.0002 190.755 29.5659 191.609 30.1934L191.609 30.1934C191.876 30.3898 192.152 30.5922 192.436 30.7994C194.769 32.4987 197.619 34.4554 200.797 35.298C204.048 36.16 207.612 35.8489 211.264 33.1094C211.711 32.7741 211.805 32.1436 211.473 31.701C211.141 31.2585 210.51 31.1716 210.063 31.5069C206.95 33.8418 204.037 34.0715 201.333 33.3546C198.557 32.6184 195.976 30.8766 193.636 29.1717C193.372 28.9797 193.11 28.7872 192.851 28.5968L192.85 28.5961C191.985 27.9602 191.151 27.3466 190.386 26.8498C189.544 26.3023 188.669 25.8145 187.819 25.6071C187.636 24.711 187.521 23.8013 187.475 22.8873L213.408 22.8873C213.964 22.8873 214.415 22.4366 214.415 21.8806C214.415 21.3247 213.964 20.874 213.408 20.874L187.483 20.874C187.54 19.9156 187.672 18.9601 187.879 18.0185C188.71 17.8033 189.564 17.3255 190.386 16.7909C191.151 16.2941 191.985 15.6805 192.85 15.0446L192.851 15.0442C193.11 14.8537 193.372 14.6611 193.636 14.469C195.976 12.7641 198.557 11.0223 201.333 10.2861C204.037 9.56921 206.95 9.79892 210.063 12.1338C210.51 12.4691 211.141 12.3822 211.473 11.9397C211.805 11.4971 211.711 10.8666 211.264 10.5313C207.612 7.79177 204.048 7.48071 200.797 8.34268C197.619 9.18534 194.769 11.142 192.436 12.8413C192.152 13.0485 191.876 13.2509 191.609 13.4473L191.609 13.4473L191.609 13.4473C190.755 14.0748 189.985 14.6405 189.274 15.1031C189.045 15.252 188.831 15.3839 188.631 15.4993C190.026 11.8263 192.663 8.54159 196.555 6.36567C197.04 6.09436 197.213 5.48105 196.942 4.99579C196.671 4.51054 196.057 4.3371 195.572 4.60841C190.885 7.22928 187.828 11.3044 186.392 15.8114C186.369 15.7813 186.346 15.7479 186.322 15.7111C185.992 15.1978 185.679 14.1858 185.507 12.3615C185.455 11.8083 184.963 11.3975 184.409 11.4441C183.854 11.4907 183.448 11.977 183.5 12.5302C183.678 14.4205 184.023 15.8424 184.629 16.7842C184.942 17.271 185.343 17.6595 185.849 17.8956C185.648 18.8792 185.521 19.8753 185.467 20.874Z" fill="#FF3F02"/>
<path fill-rule="evenodd" clip-rule="evenodd" d="M180.463 49.25H0.875V51.5H182.318L180.463 49.25ZM212.416 51.5L214.271 49.25H351.062V51.5H212.416Z" fill="#D9D9D9"/>
<path d="M7.22885 39.8448V33.539H15.8088C17.3938 33.539 18.6343 33.0739 19.5302 32.1435C20.4261 31.2131 20.8741 30.076 20.8741 28.7322C20.8741 27.8018 20.6673 26.9749 20.2538 26.2513C19.8403 25.5276 19.2545 24.9591 18.4965 24.5456C17.7729 24.1321 16.877 23.9254 15.8088 23.9254H7.22885V17.7747H15.1369C16.4807 17.7747 17.5661 17.4473 18.3931 16.7926C19.2201 16.1035 19.6336 15.0698 19.6336 13.6915C19.6336 12.3476 19.2201 11.3484 18.3931 10.6937C17.5661 10.0045 16.4807 9.65993 15.1369 9.65993H7.22885V3.35419H16.6875C19.0306 3.35419 21.0119 3.78491 22.6314 4.64635C24.2854 5.50779 25.5431 6.66212 26.4045 8.10934C27.2659 9.55656 27.6967 11.1588 27.6967 12.9162C27.6967 15.1559 26.973 17.0511 25.5258 18.6017C24.0786 20.1523 21.9422 21.2204 19.1167 21.8062L19.3235 19.0668C22.3902 19.6526 24.7505 20.8414 26.4045 22.6332C28.0929 24.425 28.9371 26.6303 28.9371 29.2491C28.9371 31.2476 28.4375 33.0566 27.4382 34.6761C26.4734 36.2612 25.0607 37.5189 23.1999 38.4492C21.3737 39.3796 19.1684 39.8448 16.5841 39.8448H7.22885ZM1.02649 39.8448V3.35419H9.03788V39.8448H1.02649Z" fill="black"/>
<path d="M32.4324 39.8448L46.9046 3.35419H54.2441L68.5612 39.8448H59.9813L49.0237 9.55656H51.9699L40.8573 39.8448H32.4324ZM40.6506 33.2289V26.6131H60.5498V33.2289H40.6506Z" fill="black"/>
<path d="M88.8025 40.4133C86.0803 40.4133 83.5477 39.9481 81.2046 39.0178C78.8959 38.053 76.8629 36.7091 75.1056 34.9862C73.3827 33.2634 72.0388 31.2648 71.074 28.9906C70.1092 26.682 69.6268 24.201 69.6268 21.5478C69.6268 18.8946 70.1092 16.4308 71.074 14.1566C72.0388 11.848 73.3827 9.84945 75.1056 8.16103C76.8284 6.4726 78.8442 5.16322 81.1529 4.23286C83.496 3.26805 86.0286 2.78564 88.7508 2.78564C91.6452 2.78564 94.2123 3.25082 96.452 4.18117C98.7262 5.11153 100.708 6.38646 102.396 8.00596L96.9689 13.4847C96.0041 12.451 94.8325 11.6412 93.4542 11.0555C92.1104 10.4697 90.5426 10.1768 88.7508 10.1768C87.1657 10.1768 85.7013 10.4525 84.3574 11.0038C83.048 11.5206 81.9109 12.2787 80.9461 13.278C80.0158 14.2772 79.2749 15.4833 78.7236 16.896C78.2067 18.3088 77.9483 19.8594 77.9483 21.5478C77.9483 23.2707 78.2067 24.8385 78.7236 26.2513C79.2749 27.664 80.0158 28.87 80.9461 29.8693C81.9109 30.8686 83.048 31.6439 84.3574 32.1952C85.7013 32.7465 87.1657 33.0222 88.7508 33.0222C90.6115 33.0222 92.231 32.7293 93.6093 32.1435C94.9876 31.5577 96.1764 30.748 97.1756 29.7142L102.654 35.193C100.897 36.8125 98.8813 38.0874 96.6071 39.0178C94.3674 39.9481 91.7658 40.4133 88.8025 40.4133Z" fill="black"/>
<path d="M130.227 39.8448L115.444 20.8242L129.761 3.35419H139.789L123.662 22.3231V19.0152L140.305 39.8448H130.227ZM108.157 39.8448V3.35419H116.271V39.8448H108.157Z" fill="black"/>
<path d="M159.869 40.4133C157.147 40.4133 154.614 39.9481 152.271 39.0178C149.963 38.053 147.93 36.7091 146.172 34.9862C144.449 33.2634 143.106 31.2648 142.141 28.9906C141.176 26.682 140.694 24.201 140.694 21.5478C140.694 18.8946 141.176 16.4308 142.141 14.1566C143.106 11.848 144.449 9.84945 146.172 8.16103C147.895 6.4726 149.911 5.16322 152.22 4.23286C154.563 3.26805 157.095 2.78564 159.817 2.78564C162.712 2.78564 165.279 3.25082 167.519 4.18117C169.793 5.11153 171.774 6.38646 173.463 8.00596L168.036 13.4847C167.071 12.451 165.899 11.6412 164.521 11.0555C163.177 10.4697 161.609 10.1768 159.817 10.1768C158.232 10.1768 156.768 10.4525 155.424 11.0038C154.115 11.5206 152.978 12.2787 152.013 13.278C151.082 14.2772 150.342 15.4833 149.79 16.896C149.273 18.3088 149.015 19.8594 149.015 21.5478C149.015 23.2707 149.273 24.8385 149.79 26.2513C150.342 27.664 151.082 28.87 152.013 29.8693C152.978 30.8686 154.115 31.6439 155.424 32.1952C156.768 32.7465 158.232 33.0222 159.817 33.0222C161.678 33.0222 163.298 32.7293 164.676 32.1435C166.054 31.5577 167.243 30.748 168.242 29.7142L173.721 35.193C171.964 36.8125 169.948 38.0874 167.674 39.0178C165.434 39.9481 162.833 40.4133 159.869 40.4133Z" fill="black"/>
<path d="M238.43 40.4133C235.432 40.4133 232.779 39.7759 230.47 38.5009C228.196 37.226 226.404 35.4687 225.095 33.2289C223.82 30.9547 223.182 28.3704 223.182 25.476V3.35419H231.349V25.9411C231.349 27.3884 231.659 28.6461 232.279 29.7142C232.899 30.7824 233.744 31.6094 234.812 32.1952C235.915 32.7465 237.121 33.0222 238.43 33.0222C239.808 33.0222 241.014 32.7465 242.048 32.1952C243.082 31.6094 243.891 30.7997 244.477 29.7659C245.097 28.6977 245.408 27.44 245.408 25.9928V3.35419H253.574V25.5276C253.574 28.4221 252.937 30.9892 251.662 33.2289C250.387 35.4687 248.612 37.226 246.338 38.5009C244.064 39.7759 241.428 40.4133 238.43 40.4133Z" fill="black"/>
<path d="M267.279 24.804V18.8084H274.98C276.599 18.8084 277.84 18.3949 278.701 17.5679C279.597 16.741 280.045 15.6211 280.045 14.2083C280.045 12.8989 279.614 11.8135 278.753 10.9521C277.892 10.0906 276.651 9.65993 275.032 9.65993H267.279V3.35419H275.962C278.374 3.35419 280.493 3.81937 282.319 4.74973C284.146 5.64562 285.576 6.90332 286.609 8.52283C287.643 10.1423 288.16 12.003 288.16 14.105C288.16 16.2413 287.643 18.1193 286.609 19.7388C285.576 21.3238 284.128 22.5643 282.268 23.4602C280.407 24.3561 278.219 24.804 275.703 24.804H267.279ZM261.076 39.8448V3.35419H269.191V39.8448H261.076ZM280.924 39.8448L269.553 24.1321L276.996 22.1163L290.537 39.8448H280.924Z" fill="black"/>
<path d="M302.851 39.8448V3.87106H310.966V39.8448H302.851ZM291.428 10.4352V3.35419H322.388V10.4352H291.428Z" fill="black"/>
<path d="M336.993 40.4133C333.995 40.4133 331.411 39.9309 329.24 38.9661C327.104 37.9668 325.14 36.4679 323.348 34.4694L328.62 29.2491C329.791 30.5929 331.084 31.6439 332.496 32.4019C333.943 33.1255 335.615 33.4873 337.51 33.4873C339.233 33.4873 340.559 33.1772 341.49 32.557C342.455 31.9368 342.937 31.0753 342.937 29.9727C342.937 28.9734 342.627 28.1637 342.007 27.5434C341.386 26.9232 340.559 26.3891 339.526 25.9411C338.526 25.4932 337.406 25.0625 336.166 24.649C334.96 24.2355 333.754 23.7703 332.548 23.2534C331.342 22.7021 330.222 22.0302 329.188 21.2377C328.189 20.4107 327.379 19.3942 326.759 18.1882C326.139 16.9477 325.829 15.3971 325.829 13.5364C325.829 11.2967 326.363 9.36704 327.431 7.74753C328.534 6.12803 330.05 4.90478 331.979 4.0778C333.909 3.21636 336.132 2.78564 338.647 2.78564C341.197 2.78564 343.523 3.23359 345.625 4.12949C347.761 5.02539 349.518 6.24863 350.897 7.79922L345.625 13.0195C344.522 11.8824 343.402 11.0382 342.265 10.4869C341.162 9.93559 339.905 9.65993 338.492 9.65993C337.079 9.65993 335.959 9.93559 335.132 10.4869C334.305 11.0038 333.892 11.7618 333.892 12.7611C333.892 13.6915 334.202 14.4495 334.822 15.0353C335.442 15.5866 336.252 16.069 337.251 16.4825C338.285 16.896 339.405 17.3095 340.611 17.723C341.852 18.1365 343.075 18.6189 344.281 19.1702C345.487 19.7215 346.589 20.4279 347.589 21.2894C348.622 22.1163 349.449 23.1845 350.07 24.4939C350.69 25.7688 351 27.3539 351 29.2491C351 32.7293 349.76 35.4687 347.279 37.4672C344.798 39.4313 341.369 40.4133 336.993 40.4133Z" fill="black"/>
</svg>
