<svg width="350" height="350" viewBox="0 0 350 350" fill="none" xmlns="http://www.w3.org/2000/svg">
<path d="M259.681 217.237C277.644 196.78 288.347 169.832 287.851 140.467C286.793 77.801 235.134 27.8578 172.468 28.9162C109.801 29.9746 59.858 81.6337 60.9163 144.3C61.4244 174.381 73.5917 201.53 93.0392 221.514L177.465 320.5L259.681 217.237Z" fill="#FF4003"/>
<circle cx="177.02" cy="142.192" r="83.4266" transform="rotate(89.0324 177.02 142.192)" fill="white" stroke="#FF4003" stroke-width="2" stroke-linecap="round" stroke-linejoin="round"/>
<path fill-rule="evenodd" clip-rule="evenodd" d="M114.016 138.258L89.1313 138.678C86.2081 138.728 83.8784 141.137 83.9278 144.061C83.9772 146.984 86.3869 149.314 89.3101 149.264L114.148 148.845C114.463 153.93 115.141 158.989 116.181 163.974C113.672 165.269 111.683 167.292 110.137 169.789C107.036 174.795 105.351 182.302 104.579 192.257C104.354 195.17 106.536 197.691 109.455 197.887C112.373 198.083 114.922 195.879 115.147 192.966C115.892 183.358 117.449 178.009 119.138 175.281C119.147 175.268 119.155 175.254 119.163 175.241C119.17 175.231 119.176 175.22 119.183 175.21C127.021 199.109 143.631 220.344 168.864 233.224C171.468 234.553 174.656 233.52 175.986 230.915C177.315 228.311 176.281 225.123 173.677 223.794C152.568 213.019 138.179 195.633 130.664 175.845C131.901 176.511 133.247 177.3 134.71 178.216C138.493 180.585 142.591 183.491 147.136 186.715L147.136 186.715C148.558 187.724 150.025 188.764 151.539 189.828C163.955 198.555 179.116 208.59 195.9 212.739C213.069 216.983 231.781 215.031 250.742 200.302C253.063 198.499 253.498 195.175 251.715 192.878C249.931 190.581 246.604 190.18 244.283 191.983C228.123 204.536 212.826 206.002 198.547 202.473C183.884 198.848 170.16 189.919 157.702 181.162C156.299 180.176 154.905 179.188 153.526 178.209L153.522 178.206L153.522 178.206C148.917 174.939 144.473 171.787 140.409 169.242C135.932 166.439 131.287 163.952 126.804 162.936C125.761 158.241 125.075 153.468 124.749 148.666L261.11 146.363C264.033 146.313 266.363 143.904 266.313 140.98C266.264 138.057 263.854 135.728 260.931 135.777L124.615 138.079C124.828 133.035 125.437 127.999 126.445 123.03C130.792 121.824 135.239 119.237 139.516 116.353C143.492 113.672 147.827 110.372 152.319 106.951L152.319 106.951C153.666 105.925 155.027 104.889 156.397 103.855C168.552 94.6831 181.967 85.2954 196.499 81.1779C210.651 77.1684 225.988 78.1175 242.563 90.1178C244.944 91.8412 248.255 91.3282 249.96 88.9719C251.665 86.6157 251.118 83.3085 248.738 81.5851C229.29 67.5051 210.522 66.186 193.507 71.0069C176.873 75.7199 162.059 86.2613 149.944 95.4031C148.468 96.5175 147.038 97.606 145.651 98.6621L145.649 98.6631L145.649 98.6632C141.216 102.038 137.219 105.081 133.517 107.577C132.326 108.38 131.212 109.092 130.172 109.717C137.184 90.2803 150.755 72.7747 171.025 60.9881C173.553 59.5184 174.41 56.2782 172.94 53.7508C171.471 51.2234 168.23 50.3659 165.703 51.8356C141.288 66.0326 125.576 87.7315 118.428 111.557C118.307 111.401 118.182 111.227 118.054 111.035C116.273 108.366 114.536 103.073 113.468 93.496C113.144 90.5916 110.522 88.4756 107.612 88.7697C104.702 89.0639 102.606 91.6568 102.93 94.5612C104.037 104.484 105.975 111.93 109.242 116.828C110.931 119.36 113.078 121.367 115.759 122.564C114.79 127.753 114.21 133.002 114.016 138.258Z" fill="#FF4003"/>
</svg>
