<svg width="232" height="296" viewBox="0 0 232 296" fill="none" xmlns="http://www.w3.org/2000/svg">
<path fill-rule="evenodd" clip-rule="evenodd" d="M228.85 113.468C229.346 142.833 218.643 169.781 200.68 190.238L118.464 293.5L34.0378 194.515C14.5903 174.531 2.42289 147.381 1.91486 117.3C0.85651 54.634 50.7997 2.97492 113.466 1.91656C176.132 0.85821 227.792 50.8014 228.85 113.468ZM34.6037 116.601C35.3817 162.67 73.3585 199.385 119.427 198.607C165.496 197.829 202.211 159.852 201.433 113.784C200.655 67.7151 162.678 30.9997 116.61 31.7778C70.541 32.5558 33.8256 70.5326 34.6037 116.601Z" fill="#FF4003"/>
<path fill-rule="evenodd" clip-rule="evenodd" d="M126.389 49.2109L126.842 22.3892C126.896 19.2385 124.385 16.6411 121.234 16.5879C118.083 16.5347 115.486 19.0458 115.433 22.1965L114.98 48.968C109.491 49.1224 104.017 49.6686 98.6086 50.6071C97.3053 47.8567 95.1984 45.6407 92.5648 43.884C87.285 40.3623 79.2596 38.273 68.564 37.0799C65.4336 36.7307 62.6388 38.9903 62.3217 42.1268C62.0047 45.2634 64.2854 48.0891 67.4159 48.4383C77.738 49.5898 83.4435 51.462 86.3208 53.3811C86.3361 53.3914 86.3514 53.4016 86.3665 53.4118C86.3765 53.4185 86.3864 53.4252 86.3962 53.4319C60.3662 61.0056 36.8858 78.1252 22.0931 104.839C20.5665 107.595 21.5638 111.068 24.3205 112.594C27.0773 114.121 30.5496 113.124 32.0762 110.367C44.451 88.0197 63.7045 73.1518 85.2939 65.777C84.5311 67.0854 83.6325 68.5064 82.5929 70.0484C79.9032 74.0381 76.6231 78.3466 72.9855 83.1247L72.9853 83.125L72.9828 83.1282C71.8449 84.6228 70.6721 86.1633 69.4715 87.7544C59.618 100.812 48.256 116.779 43.1761 134.708C37.98 153.048 39.4017 173.277 54.5778 194.238C56.4354 196.804 60 197.394 62.5397 195.556C65.0793 193.719 65.6323 190.149 63.7747 187.583C50.8403 169.718 49.8173 153.187 54.1389 137.933C58.577 122.269 68.6954 107.81 78.5818 94.7091C79.6953 93.2336 80.8116 91.7675 81.9164 90.3166L81.9187 90.3136C85.6054 85.4717 89.1631 80.7995 92.0519 76.5146C95.2349 71.7933 98.0831 66.8809 99.3398 62.089C104.436 61.1354 109.603 60.5706 114.787 60.3947L112.305 207.37C112.252 210.521 114.763 213.118 117.914 213.171C121.065 213.225 123.662 210.714 123.715 207.563L126.197 60.635C131.623 61.0481 137.025 61.8879 142.342 63.1547C143.482 67.8808 146.108 72.7649 149.059 77.4777C151.801 81.8577 155.199 86.6475 158.72 91.611L158.725 91.6174C159.779 93.1037 160.845 94.6056 161.907 96.1167C171.345 109.544 180.97 124.337 184.876 140.142C188.68 155.532 187.1 172.02 173.569 189.438C171.626 191.94 172.058 195.526 174.534 197.448C177.011 199.371 180.593 198.901 182.536 196.4C198.412 175.963 200.516 155.794 195.942 137.289C191.47 119.198 180.654 102.857 171.247 89.4737C170.1 87.8418 168.979 86.2615 167.891 84.7283L167.891 84.7282L167.891 84.7275C164.417 79.8295 161.284 75.4128 158.731 71.3347C157.909 70.0224 157.182 68.7971 156.547 67.6541C177.23 75.915 195.593 91.1712 207.552 113.435C209.043 116.212 212.503 117.253 215.279 115.762C218.055 114.271 219.097 110.812 217.605 108.036C203.2 81.218 180.398 63.503 154.992 54.9356C155.165 54.8104 155.356 54.682 155.568 54.551C158.508 52.7301 164.274 51.0516 174.629 50.2494C177.769 50.0061 180.144 47.259 179.933 44.1135C179.722 40.968 177.005 38.6154 173.865 38.8587C163.135 39.6899 155.044 41.507 149.648 44.8485C146.859 46.5756 144.619 48.8148 143.232 51.6599C137.677 50.4276 132.044 49.6111 126.389 49.2109Z" fill="#FF4003"/>
</svg>
