<svg width="500" height="500" viewBox="0 0 500 500" fill="none" xmlns="http://www.w3.org/2000/svg">
<path fill-rule="evenodd" clip-rule="evenodd" d="M256.66 118.469L270.553 126.49C303.491 145.507 314.776 187.625 295.76 220.563L235.211 325.436C233.954 327.613 233.742 330.284 234.986 332.468C237.909 337.6 242.193 342.048 247.678 345.214L255.485 349.721C257.728 351.016 260.603 350.322 261.898 348.079V348.079L325.579 237.779C354.105 188.372 337.176 125.196 287.77 96.6707L273.876 88.6492C224.469 60.1241 161.293 77.0521 132.768 126.459L69.0863 236.759C40.5612 286.166 57.4893 349.342 106.896 377.867L120.79 385.888C125.761 388.759 130.871 391.168 136.072 393.132C142.827 395.681 148 387.869 144.546 381.529C140.147 373.452 136.571 364.976 133.854 356.239C133.238 354.257 131.924 352.557 130.126 351.519L124.112 348.047C91.1746 329.031 79.8892 286.913 98.9059 253.975L162.587 143.675C181.604 110.738 223.722 99.4521 256.66 118.469Z" fill="#FF5A5F"/>
<path fill-rule="evenodd" clip-rule="evenodd" d="M237.487 374.988L223.594 366.966C190.656 347.949 179.371 305.832 198.387 272.894L258.936 168.021C260.193 165.844 260.405 163.172 259.161 160.989C256.238 155.856 251.954 151.409 246.469 148.243L238.662 143.735C236.419 142.44 233.544 143.135 232.249 145.378V145.378L168.568 255.678C140.042 305.084 156.971 368.261 206.377 396.786L220.271 404.807C269.678 433.332 332.854 416.404 361.379 366.998L425.061 256.698C453.586 207.291 436.658 144.115 387.251 115.59L373.357 107.568C368.386 104.698 363.275 102.288 358.075 100.325C351.32 97.7755 346.147 105.587 349.6 111.927C354 120.004 357.576 128.481 360.292 137.217C360.909 139.2 362.223 140.899 364.021 141.937L370.035 145.409C402.972 164.426 414.258 206.544 395.241 239.481L331.56 349.781C312.543 382.719 270.425 394.004 237.487 374.988Z" fill="#FF5A5F"/>
</svg>
